<?xml version="1.0" encoding="utf-8"?>
<!-- Generator: Adobe Illustrator 24.3.0, SVG Export Plug-In . SVG Version: 6.00 Build 0)  -->
<svg version="1.1" id="Layer_1" xmlns="http://www.w3.org/2000/svg" xmlns:xlink="http://www.w3.org/1999/xlink" x="0px" y="0px"
	 viewBox="0 0 24 24" style="enable-background:new 0 0 24 24;" xml:space="preserve">
<style type="text/css">
	.st0{fill:none;}
	.st1{fill:#E1FF00;}
</style>
<path class="st0" d="M0,0h24v24H0V0z"/>
<path class="st1" d="M12,0C5.4,0,0,5.4,0,12s5.4,12,12,12s12-5.4,12-12S18.6,0,12,0z M6.1,19.6c0.5-1.1,3.6-2.2,5.9-2.2
	s5.4,1.1,5.9,2.2c-1.6,1.3-3.6,2-5.9,2S7.7,20.9,6.1,19.6z M19.7,17.8C18,15.7,13.8,15,12,15s-5.9,0.7-7.7,2.8
	c-1.2-1.6-1.9-3.6-1.9-5.8c0-5.3,4.3-9.6,9.6-9.6s9.6,4.3,9.6,9.6C21.6,14.2,20.9,16.2,19.7,17.8z M12,4.8C9.7,4.8,7.8,6.7,7.8,9
	s1.9,4.2,4.2,4.2s4.2-1.9,4.2-4.2S14.3,4.8,12,4.8z M12,10.8c-1,0-1.8-0.8-1.8-1.8S11,7.2,12,7.2S13.8,8,13.8,9S13,10.8,12,10.8z"/>
</svg>
