<?xml version="1.0" encoding="utf-8"?>
<!-- Generator: Adobe Illustrator 24.3.0, SVG Export Plug-In . SVG Version: 6.00 Build 0)  -->
<svg version="1.1" id="Layer_1" xmlns:xodm="http://www.corel.com/coreldraw/odm/2003"
	 xmlns="http://www.w3.org/2000/svg" xmlns:xlink="http://www.w3.org/1999/xlink" x="0px" y="0px" viewBox="0 0 130.6 130.6"
	 style="enable-background:new 0 0 130.6 130.6;" xml:space="preserve">
<style type="text/css">
	.st0{fill-rule:evenodd;clip-rule:evenodd;fill:#3C8C05;}
	.st1{fill:#FEFEFE;}
</style>
<rect y="0" class="st0" width="130.6" height="130.6"/>
<path class="st1" d="M83.7,72.6c2.8,0,5.6-1.6,6.8-4L105,42.5c1.6-2.8-0.4-6-3.6-6H42l-3.6-8H25.1v8h8L47.6,67l-5.2,9.6
	c-2.8,5.2,0.8,12,7.2,12h48.2v-8H49.2l4.4-8H83.7L83.7,72.6z M46,44.5h48.6L83.3,64.6H55.2L46,44.5L46,44.5z M49.2,92.7
	c-4.4,0-8,3.6-8,8s3.6,8,8,8c4.4,0,8-3.6,8-8C57.2,96.3,53.6,92.7,49.2,92.7z M89.3,92.7c-4.4,0-8,3.6-8,8s3.6,8,8,8s8-3.6,8-8
	C97.4,96.3,93.7,92.7,89.3,92.7z"/>
</svg>
