<?xml version="1.0" encoding="utf-8"?>
<!-- Generator: Adobe Illustrator 24.3.0, SVG Export Plug-In . SVG Version: 6.00 Build 0)  -->
<svg version="1.1" id="Layer_1" xmlns:xodm="http://www.corel.com/coreldraw/odm/2003"
	 xmlns="http://www.w3.org/2000/svg" xmlns:xlink="http://www.w3.org/1999/xlink" x="0px" y="0px" viewBox="0 0 130.6 130.6"
	 style="enable-background:new 0 0 130.6 130.6;" xml:space="preserve">
<style type="text/css">
	.st0{fill:#E1FF00;}
</style>
<path class="st0" d="M95.2,72.2c4.5,0,9.1-2.6,11-6.5l23.5-42.2c2.6-4.5-0.6-9.7-5.8-9.7H27.7L21.9,0.9H0.4v12.9h12.9l23.5,49.3
	l-8.4,15.5c-4.5,8.4,1.3,19.4,11.6,19.4h78V85.2H39.4l7.1-12.9H95.2L95.2,72.2z M34.2,26.8h78.6L94.5,59.3H49.1L34.2,26.8L34.2,26.8
	z M39.4,104.7c-7.1,0-12.9,5.8-12.9,12.9c0,7.1,5.8,12.9,12.9,12.9s12.9-5.8,12.9-12.9C52.3,110.5,46.5,104.7,39.4,104.7z
	 M104.2,104.7c-7.1,0-12.9,5.8-12.9,12.9c0,7.1,5.8,12.9,12.9,12.9c7.1,0,12.9-5.8,12.9-12.9C117.3,110.5,111.4,104.7,104.2,104.7z"
	/>
</svg>
