<?xml version="1.0" encoding="UTF-8"?>
<!DOCTYPE svg PUBLIC "-//W3C//DTD SVG 1.1//EN" "http://www.w3.org/Graphics/SVG/1.1/DTD/svg11.dtd">
<!-- Creator: CorelDRAW 2020 (64-Bit) -->
<svg xmlns="http://www.w3.org/2000/svg" xml:space="preserve" width="87.0526mm" height="20mm" version="1.1" style="shape-rendering:geometricPrecision; text-rendering:geometricPrecision; image-rendering:optimizeQuality; fill-rule:evenodd; clip-rule:evenodd"
viewBox="0 0 4890.82 1123.65"
 xmlns:xlink="http://www.w3.org/1999/xlink"
 xmlns:xodm="http://www.corel.com/coreldraw/odm/2003">
 <defs>
  <style type="text/css">
   <![CDATA[
    .fil0 {fill:#E1FF00;fill-rule:nonzero}
   ]]>
  </style>
 </defs>
 <g id="Слой_x0020_1">
  <metadata id="CorelCorpID_0Corel-Layer"/>
  <path class="fil0" d="M4754.54 301.9l-178.56 -0.22 -145.96 518.85 324.52 0 0 -518.63zm-247.34 -85.81l338.19 0 0 604.44 45.43 0 0 85.81 -593.09 0 0 -85.81 37.86 0 171.61 -604.44zm-694.04 -200.64c9.25,19.35 24.4,33.86 45.43,43.54 21.03,9.67 43.33,14.51 66.89,14.51 22.71,0 45,-5.05 66.88,-15.15 21.87,-10.1 37.01,-24.39 45.42,-42.9l79.5 0c-10.94,42.9 -34.07,75.29 -69.41,97.17 -35.33,21.87 -76.13,32.8 -122.4,32.8 -47.11,0 -87.08,-10.09 -119.88,-30.28 -37.02,-22.72 -60.99,-55.95 -71.93,-99.69l79.5 0zm416.42 200.64l0 690.26 -93.38 0 0 -585.52 -421.47 585.52 -93.38 0 0 -690.26 93.38 0 0 549.76 391.19 -549.76 123.66 0zm-795.57 295.65c-11.26,-61.95 -41.64,-112.25 -91.12,-150.87 -49.49,-38.62 -107.21,-57.94 -173.19,-57.94 -45.86,0 -88.91,11.67 -129.14,35.01 -40.23,23.33 -72.01,54.71 -95.35,94.14l-100.17 0c24.94,-65.18 67.59,-117.28 127.93,-156.3 60.35,-39.02 126.32,-58.54 197.94,-58.54 97.36,0 181.24,33.19 251.64,99.37 70.41,66.38 105.61,147.65 105.61,244 0,98.77 -35,181.04 -105,247.02 -70,65.78 -155.29,98.77 -255.87,98.77 -71.61,0 -135.57,-18.3 -191.9,-55.11 -56.33,-36.81 -99.37,-87.71 -129.15,-152.48l98.97 0c29.77,40.64 63.16,71.01 100.17,91.32 37.01,20.32 80.86,30.57 131.56,30.57 68.39,0 126.73,-21.52 175,-64.77 48.28,-43.25 76.44,-97.76 84.49,-163.34l-473.12 0 0 -80.86 470.7 0zm-776.05 51.29c0,-71.41 -25.15,-132.56 -75.43,-183.65 -50.29,-50.89 -111.65,-76.44 -184.06,-76.44 -73.22,0 -135.58,24.14 -187.08,72.22 -51.5,48.28 -77.24,108.42 -77.24,180.64 0,39.42 5.03,73.22 15.08,101.79 10.06,28.56 28.36,55.92 54.91,82.47 51.5,53.71 114.26,80.66 188.28,80.66 74.03,0 136.78,-24.53 188.28,-73.42 51.5,-49.08 77.25,-110.43 77.25,-184.26zm-523.81 -331.3l0 113.45c24.14,-40.23 61.55,-71.61 111.84,-94.14 50.49,-22.53 100.98,-33.79 151.87,-33.79 50.69,0 97.97,9.86 141.41,29.57 43.45,19.71 86.7,52.3 129.34,98.16 21.73,19.32 40.43,48.88 55.72,89.12 15.29,40.23 22.93,83.48 22.93,130.14 0,97.16 -35.2,178.43 -105.61,244.01 -70.41,65.37 -154.29,98.16 -251.65,98.16 -51.5,0 -99.77,-11.67 -144.83,-34.8 -49.09,-25.34 -84.08,-59.74 -105,-102.79l0 354.84 -89.31 0 0 -891.92 83.28 0zm-342.15 -149.36l-207.77 0 0 -82.37 506.53 0 0 82.37 -207.77 0 0 826.18 -90.98 0 0 -826.18zm-215.87 480.66c0,-71.41 -25.14,-132.56 -75.43,-183.65 -50.29,-50.89 -111.64,-76.44 -184.06,-76.44 -73.22,0 -135.57,24.14 -187.07,72.22 -51.5,48.28 -77.25,108.42 -77.25,180.64 0,39.42 5.03,73.22 15.09,101.79 10.06,28.56 28.36,55.92 54.91,82.47 51.5,53.71 114.26,80.66 188.28,80.66 74.03,0 136.78,-24.53 188.28,-73.42 51.5,-49.08 77.24,-110.43 77.24,-184.26zm-523.81 -331.3l0 113.45c24.14,-40.23 61.55,-71.61 111.84,-94.14 50.49,-22.53 100.98,-33.79 151.87,-33.79 50.69,0 97.97,9.86 141.41,29.57 43.45,19.71 86.7,52.3 129.34,98.16 21.73,19.32 40.43,48.88 55.72,89.12 15.29,40.23 22.93,83.48 22.93,130.14 0,97.16 -35.2,178.43 -105.61,244.01 -70.4,65.37 -154.28,98.16 -251.64,98.16 -51.5,0 -99.77,-11.67 -144.83,-34.8 -49.08,-25.34 -84.08,-59.74 -105,-102.79l0 354.84 -89.31 0 0 -891.92 83.27 0zm-438.07 287.79l-173.18 -416.19 -177.05 416.19 350.23 0zm-223.41 -519.52l100.47 0 388.42 905.48 -98.63 0.2 -130.29 -304.07 -422.31 0 -130.9 303.67 -97.61 0.2 390.87 -905.48z"/>
 </g>
</svg>
