<?xml version="1.0" encoding="utf-8"?>
<!-- Generator: Adobe Illustrator 24.3.0, SVG Export Plug-In . SVG Version: 6.00 Build 0)  -->
<svg version="1.1" id="Capa_1" xmlns="http://www.w3.org/2000/svg" xmlns:xlink="http://www.w3.org/1999/xlink" x="0px" y="0px"
	 viewBox="0 0 512 512" style="enable-background:new 0 0 512 512;" xml:space="preserve">
<style type="text/css">
	.st0{fill:#E1FF00;}
</style>
<g>
	<g>
		<path class="st0" d="M485.7,85.3H26.3C11.8,85.3,0,97.1,0,111.6v288.8c0,14.4,11.8,26.3,26.3,26.3h459.5
			c14.4,0,26.3-11.8,26.3-26.3V111.6C512,97.1,500.2,85.3,485.7,85.3z M475.9,105L271.1,258.6c-3.7,2.8-9.3,4.6-15.1,4.5
			c-5.8,0-11.4-1.7-15.1-4.5L36.1,105H475.9z M366.5,268.8l111.6,137.8c0.1,0.1,0.2,0.2,0.4,0.4H33.5c0.1-0.1,0.3-0.2,0.4-0.4
			l111.6-137.8c3.4-4.2,2.8-10.4-1.5-13.9c-4.2-3.4-10.4-2.8-13.8,1.5L19.7,392.9V117.3l209.4,157c7.9,5.9,17.4,8.4,26.9,8.5
			c9.5,0,19-2.6,26.9-8.5l209.4-157v275.5L381.8,256.4c-3.4-4.2-9.6-4.9-13.8-1.5C363.7,258.3,363.1,264.5,366.5,268.8z"/>
	</g>
</g>
</svg>
